NotoSerifYezidi-Regular.ufo
<glyph name="uni060C" format="2">
  <advance width="212"/>
  <unicode hex="060C"/>
  <outline>
    <contour>
      <point x="102" y="-60" type="curve" smooth="yes"/>
      <point x="135" y="-60"/>
      <point x="163" y="-32"/>
      <point x="169" y="7" type="curve"/>
      <point x="134" y="18"/>
      <point x="113" y="28"/>
      <point x="113" y="46" type="curve" smooth="yes"/>
      <point x="113" y="82"/>
      <point x="137" y="147"/>
      <point x="169" y="182" type="curve"/>
      <point x="142" y="205" type="line"/>
      <point x="85" y="144"/>
      <point x="40" y="56"/>
      <point x="40" y="6" type="curve" smooth="yes"/>
      <point x="40" y="-27"/>
      <point x="65" y="-60"/>
    </contour>
  </outline>
</glyph>
<glyph name="uni061B" format="2">
  <advance width="212"/>
  <unicode hex="061B"/>
  <outline>
    <contour>
      <point x="106" y="176" type="curve" smooth="yes"/>
      <point x="140" y="176"/>
      <point x="167" y="203"/>
      <point x="173" y="243" type="curve"/>
      <point x="139" y="254"/>
      <point x="118" y="264"/>
      <point x="118" y="282" type="curve" smooth="yes"/>
      <point x="118" y="317"/>
      <point x="141" y="382"/>
      <point x="173" y="417" type="curve"/>
      <point x="146" y="440" type="line"/>
      <point x="89" y="379"/>
      <point x="44" y="292"/>
      <point x="44" y="242" type="curve" smooth="yes"/>
      <point x="44" y="208"/>
      <point x="69" y="176"/>
    </contour>
    <contour>
      <point x="125" y="-66" type="curve"/>
      <point x="153" y="-26"/>
      <point x="167" y="-3"/>
      <point x="167" y="5" type="curve" smooth="yes"/>
      <point x="167" y="15"/>
      <point x="141" y="34"/>
      <point x="90" y="64" type="curve"/>
      <point x="82" y="52"/>
      <point x="74" y="39"/>
      <point x="67" y="26" type="curve" smooth="yes"/>
      <point x="61" y="13"/>
      <point x="53" y="0"/>
      <point x="46" y="-14" type="curve"/>
      <point x="66" y="-26"/>
      <point x="93" y="-43"/>
    </contour>
  </outline>
</glyph>
<glyph name="uni061F" format="2">
  <advance width="425"/>
  <unicode hex="061F"/>
  <outline>
    <contour>
      <point x="239" y="98" type="line"/>
      <point x="262" y="143"/>
      <point x="273" y="180"/>
      <point x="273" y="208" type="curve" smooth="yes"/>
      <point x="273" y="234"/>
      <point x="263" y="257"/>
      <point x="243" y="278" type="curve" smooth="yes"/>
      <point x="204" y="318"/>
      <point x="134" y="339"/>
      <point x="91" y="366" type="curve"/>
      <point x="113" y="432"/>
      <point x="171" y="476"/>
      <point x="232" y="476" type="curve" smooth="yes"/>
      <point x="278" y="476"/>
      <point x="303" y="465"/>
      <point x="343" y="428" type="curve"/>
      <point x="363" y="445"/>
      <point x="373" y="464"/>
      <point x="373" y="483" type="curve" smooth="yes"/>
      <point x="373" y="495"/>
      <point x="368" y="506"/>
      <point x="359" y="516" type="curve" smooth="yes"/>
      <point x="331" y="546"/>
      <point x="292" y="562"/>
      <point x="243" y="562" type="curve" smooth="yes"/>
      <point x="211" y="562"/>
      <point x="180" y="552"/>
      <point x="151" y="533" type="curve" smooth="yes"/>
      <point x="94" y="495"/>
      <point x="55" y="425"/>
      <point x="55" y="363" type="curve" smooth="yes"/>
      <point x="55" y="315"/>
      <point x="80" y="280"/>
      <point x="132" y="252" type="curve" smooth="yes"/>
      <point x="162" y="235"/>
      <point x="182" y="222"/>
      <point x="192" y="211" type="curve" smooth="yes"/>
      <point x="203" y="201"/>
      <point x="208" y="189"/>
      <point x="208" y="176" type="curve" smooth="yes"/>
      <point x="208" y="167"/>
      <point x="206" y="149"/>
      <point x="201" y="122" type="curve"/>
    </contour>
    <contour>
      <point x="217" y="-71" type="curve"/>
      <point x="245" y="-30"/>
      <point x="258" y="-7"/>
      <point x="258" y="0" type="curve" smooth="yes"/>
      <point x="258" y="4"/>
      <point x="252" y="11"/>
      <point x="241" y="21" type="curve" smooth="yes"/>
      <point x="229" y="31"/>
      <point x="209" y="43"/>
      <point x="182" y="59" type="curve"/>
      <point x="174" y="47"/>
      <point x="166" y="34"/>
      <point x="159" y="21" type="curve" smooth="yes"/>
      <point x="153" y="8"/>
      <point x="146" y="-5"/>
      <point x="138" y="-19" type="curve"/>
      <point x="165" y="-34"/>
      <point x="184" y="-47"/>
    </contour>
  </outline>
</glyph>
<glyph name="uni06D4" format="2">
  <advance width="243"/>
  <unicode hex="06D4"/>
  <outline>
    <contour>
      <point x="44" y="0" type="curve" smooth="yes"/>
      <point x="198" y="0" type="line" smooth="yes"/>
      <point x="201" y="0"/>
      <point x="203" y="1"/>
      <point x="203" y="3" type="curve" smooth="yes"/>
      <point x="203" y="73" type="line" smooth="yes"/>
      <point x="203" y="75"/>
      <point x="200" y="76"/>
      <point x="198" y="76" type="curve" smooth="yes"/>
      <point x="44" y="76" type="line" smooth="yes"/>
      <point x="42" y="76"/>
      <point x="41" y="75"/>
      <point x="41" y="73" type="curve" smooth="yes"/>
      <point x="41" y="3" type="line" smooth="yes"/>
      <point x="41" y="1"/>
      <point x="42" y="0"/>
    </contour>
  </outline>
</glyph>
<glyph name="elif-yezi" format="2">
  <advance width="244"/>
  <unicode hex="10E80"/>
  <anchor x="54" y="795" name="top"/>
  <anchor x="54" y="792" name="top.madda"/>
  <outline>
    <contour>
      <point x="112" y="0" type="curve"/>
      <point x="148" y="0" type="line"/>
      <point x="150" y="60"/>
      <point x="152" y="162"/>
      <point x="152" y="251" type="curve" smooth="yes"/>
      <point x="152" y="452"/>
      <point x="143" y="597"/>
      <point x="119" y="770" type="curve"/>
      <point x="114" y="770" type="line"/>
      <point x="38" y="714" type="line"/>
      <point x="89" y="506"/>
      <point x="112" y="282"/>
    </contour>
  </outline>
</glyph>
<glyph name="be-yezi" format="2">
  <advance width="533"/>
  <unicode hex="10E81"/>
  <outline>
    <contour>
      <point x="270" y="0" type="curve"/>
      <point x="280" y="0" type="line"/>
      <point x="346" y="159"/>
      <point x="419" y="312"/>
      <point x="493" y="442" type="curve"/>
      <point x="462" y="463" type="line"/>
      <point x="398" y="347"/>
      <point x="339" y="228"/>
      <point x="284" y="95" type="curve"/>
      <point x="316" y="95" type="line"/>
      <point x="252" y="229"/>
      <point x="181" y="352"/>
      <point x="106" y="468" type="curve"/>
      <point x="100" y="468" type="line"/>
      <point x="34" y="394" type="line"/>
      <point x="118" y="271"/>
      <point x="198" y="141"/>
    </contour>
  </outline>
</glyph>
<glyph name="pe-yezi" format="2">
  <advance width="467"/>
  <unicode hex="10E82"/>
  <outline>
    <contour>
      <point x="90" y="-293" type="line"/>
      <point x="304" y="-115" type="line" smooth="yes"/>
      <point x="379" y="-52"/>
      <point x="398" y="-30"/>
      <point x="398" y="1" type="curve" smooth="yes"/>
      <point x="398" y="35"/>
      <point x="376" y="56"/>
      <point x="308" y="87" type="curve" smooth="yes"/>
      <point x="175" y="148" type="line"/>
      <point x="158" y="118" type="line"/>
      <point x="301" y="227" type="line" smooth="yes"/>
      <point x="363" y="274"/>
      <point x="378" y="293"/>
      <point x="378" y="319" type="curve" smooth="yes"/>
      <point x="378" y="347"/>
      <point x="360" y="364"/>
      <point x="312" y="384" type="curve" smooth="yes"/>
      <point x="108" y="466" type="line"/>
      <point x="102" y="466" type="line"/>
      <point x="50" y="394" type="line"/>
      <point x="50" y="388" type="line"/>
      <point x="248" y="309" type="line" smooth="yes"/>
      <point x="276" y="298"/>
      <point x="283" y="291"/>
      <point x="283" y="276" type="curve" smooth="yes"/>
      <point x="283" y="261"/>
      <point x="275" y="250"/>
      <point x="246" y="228" type="curve" smooth="yes"/>
      <point x="89" y="107" type="line"/>
      <point x="89" y="88" type="line"/>
      <point x="268" y="2" type="line" smooth="yes"/>
      <point x="298" y="-12"/>
      <point x="307" y="-23"/>
      <point x="307" y="-42" type="curve" smooth="yes"/>
      <point x="307" y="-61"/>
      <point x="298" y="-73"/>
      <point x="245" y="-119" type="curve" smooth="yes"/>
      <point x="70" y="-270" type="line"/>
    </contour>
  </outline>
</glyph>
<glyph name="phe-yezi" format="2">
  <advance width="472"/>
  <unicode hex="10E83"/>
  <outline>
    <contour>
      <point x="362" y="-195" type="curve"/>
      <point x="440" y="-151" type="line"/>
      <point x="442" y="-145" type="line"/>
      <point x="374" y="-31"/>
      <point x="323" y="64"/>
      <point x="279" y="160" type="curve" smooth="yes"/>
      <point x="228" y="271"/>
      <point x="177" y="369"/>
      <point x="120" y="463" type="curve"/>
      <point x="42" y="419" type="line"/>
      <point x="40" y="413" type="line"/>
      <point x="108" y="299"/>
      <point x="159" y="204"/>
      <point x="203" y="108" type="curve" smooth="yes"/>
      <point x="254" y="-3"/>
      <point x="305" y="-101"/>
    </contour>
  </outline>
</glyph>
<glyph name="the-yezi" format="2">
  <advance width="519"/>
  <unicode hex="10E84"/>
  <outline>
    <contour>
      <point x="28" y="0" type="line"/>
      <point x="456" y="0" type="line"/>
      <point x="491" y="87" type="line"/>
      <point x="491" y="92" type="line"/>
      <point x="62" y="92" type="line"/>
      <point x="28" y="6" type="line"/>
    </contour>
    <contour>
      <point x="251" y="80" type="curve"/>
      <point x="290" y="80" type="line"/>
      <point x="292" y="110"/>
      <point x="294" y="159"/>
      <point x="294" y="209" type="curve" smooth="yes"/>
      <point x="294" y="308"/>
      <point x="288" y="380"/>
      <point x="273" y="463" type="curve"/>
      <point x="268" y="463" type="line"/>
      <point x="208" y="416" type="line"/>
      <point x="237" y="316"/>
      <point x="251" y="208"/>
    </contour>
  </outline>
</glyph>
<glyph name="se-yezi" format="2">
  <advance width="498"/>
  <unicode hex="10E85"/>
  <outline>
    <contour>
      <point x="301" y="0" type="curve"/>
      <point x="336" y="0" type="line"/>
      <point x="278" y="172"/>
      <point x="172" y="334"/>
      <point x="80" y="432" type="curve"/>
      <point x="74" y="371" type="line"/>
      <point x="451" y="371" type="line"/>
      <point x="486" y="458" type="line"/>
      <point x="486" y="463" type="line"/>
      <point x="68" y="463" type="line"/>
      <point x="34" y="377" type="line"/>
      <point x="34" y="371" type="line"/>
      <point x="123" y="284"/>
      <point x="240" y="149"/>
    </contour>
  </outline>
</glyph>
<glyph name="chhim-yezi" format="2">
  <advance width="699"/>
  <unicode hex="10E88"/>
  <outline>
    <contour>
      <point x="20" y="0" type="line"/>
      <point x="486" y="0" type="line"/>
      <point x="667" y="407" type="line"/>
      <point x="637" y="421" type="line"/>
      <point x="481" y="70" type="line"/>
      <point x="514" y="88" type="line"/>
      <point x="429" y="196"/>
      <point x="349" y="321"/>
      <point x="273" y="463" type="curve"/>
      <point x="263" y="463" type="line"/>
      <point x="192" y="302"/>
      <point x="110" y="152"/>
      <point x="20" y="9" type="curve"/>
    </contour>
    <contour>
      <point x="20" y="-100" type="line"/>
      <point x="486" y="-100" type="line"/>
      <point x="486" y="-70" type="line"/>
      <point x="20" y="-70" type="line"/>
    </contour>
    <contour>
      <point x="84" y="51" type="line"/>
      <point x="140" y="142"/>
      <point x="202" y="256"/>
      <point x="256" y="363" type="curve"/>
      <point x="235" y="363" type="line"/>
      <point x="299" y="251"/>
      <point x="367" y="144"/>
      <point x="441" y="42" type="curve"/>
      <point x="441" y="83" type="line"/>
      <point x="84" y="83" type="line"/>
    </contour>
  </outline>
</glyph>
<glyph name="hha-yezi" format="2">
  <advance width="559"/>
  <unicode hex="10E89"/>
  <outline>
    <contour>
      <point x="286" y="0" type="curve"/>
      <point x="296" y="0" type="line"/>
      <point x="367" y="161"/>
      <point x="449" y="311"/>
      <point x="539" y="454" type="curve"/>
      <point x="539" y="463" type="line"/>
      <point x="73" y="463" type="line"/>
      <point x="40" y="380" type="line"/>
      <point x="127" y="271"/>
      <point x="209" y="145"/>
    </contour>
    <contour>
      <point x="303" y="100" type="curve"/>
      <point x="324" y="100" type="line"/>
      <point x="260" y="212"/>
      <point x="192" y="319"/>
      <point x="118" y="421" type="curve"/>
      <point x="103" y="380" type="line"/>
      <point x="489" y="380" type="line"/>
      <point x="475" y="412" type="line"/>
      <point x="419" y="321"/>
      <point x="357" y="207"/>
    </contour>
  </outline>
</glyph>
<glyph name="xa-yezi" format="2">
  <advance width="600"/>
  <unicode hex="10E8A"/>
  <outline>
    <contour>
      <point x="41" y="0" type="line"/>
      <point x="507" y="0" type="line"/>
      <point x="540" y="83" type="line"/>
      <point x="460" y="183"/>
      <point x="385" y="297"/>
      <point x="313" y="427" type="curve"/>
      <point x="268" y="427" type="line"/>
      <point x="201" y="280"/>
      <point x="124" y="141"/>
      <point x="41" y="9" type="curve"/>
    </contour>
    <contour>
      <point x="462" y="42" type="curve"/>
      <point x="477" y="83" type="line"/>
      <point x="91" y="83" type="line"/>
      <point x="105" y="51" type="line"/>
      <point x="161" y="142"/>
      <point x="223" y="256"/>
      <point x="277" y="363" type="curve"/>
      <point x="256" y="363" type="line"/>
      <point x="320" y="251"/>
      <point x="388" y="144"/>
    </contour>
    <contour>
      <point x="40" y="387" type="line"/>
      <point x="506" y="387" type="line"/>
      <point x="533" y="457" type="line"/>
      <point x="533" y="463" type="line"/>
      <point x="68" y="463" type="line"/>
      <point x="40" y="393" type="line"/>
    </contour>
  </outline>
</glyph>
<glyph name="dal-yezi" format="2">
  <advance width="531"/>
  <unicode hex="10E8B"/>
  <outline>
    <contour>
      <point x="67" y="0" type="line"/>
      <point x="434" y="0" type="line"/>
      <point x="469" y="80" type="line"/>
      <point x="469" y="86" type="line"/>
      <point x="455" y="141"/>
      <point x="449" y="196"/>
      <point x="449" y="256" type="curve" smooth="yes"/>
      <point x="449" y="316"/>
      <point x="454" y="381"/>
      <point x="464" y="457" type="curve"/>
      <point x="464" y="463" type="line"/>
      <point x="97" y="463" type="line"/>
      <point x="62" y="383" type="line"/>
      <point x="62" y="377" type="line"/>
      <point x="76" y="322"/>
      <point x="82" y="267"/>
      <point x="82" y="207" type="curve" smooth="yes"/>
      <point x="82" y="147"/>
      <point x="77" y="82"/>
      <point x="67" y="6" type="curve"/>
    </contour>
    <contour>
      <point x="408" y="35" type="curve"/>
      <point x="458" y="92" type="line"/>
      <point x="97" y="92" type="line"/>
      <point x="104" y="75" type="line"/>
      <point x="116" y="155"/>
      <point x="128" y="246"/>
      <point x="128" y="335" type="curve" smooth="yes"/>
      <point x="128" y="366"/>
      <point x="126" y="398"/>
      <point x="123" y="428" type="curve"/>
      <point x="73" y="371" type="line"/>
      <point x="434" y="371" type="line"/>
      <point x="427" y="388" type="line"/>
      <point x="415" y="308"/>
      <point x="403" y="217"/>
      <point x="403" y="128" type="curve" smooth="yes"/>
      <point x="403" y="97"/>
      <point x="405" y="65"/>
    </contour>
  </outline>
</glyph>
<glyph name="zal-yezi" format="2">
  <advance width="531"/>
  <unicode hex="10E8C"/>
  <outline>
    <contour>
      <point x="92" y="-293" type="line"/>
      <point x="97" y="-293" type="line"/>
      <point x="154" y="-259" type="line"/>
      <point x="122" y="387" type="line"/>
      <point x="106" y="371" type="line"/>
      <point x="434" y="371" type="line"/>
      <point x="427" y="388" type="line"/>
      <point x="415" y="308"/>
      <point x="403" y="217"/>
      <point x="403" y="128" type="curve" smooth="yes"/>
      <point x="403" y="97"/>
      <point x="405" y="65"/>
      <point x="408" y="35" type="curve"/>
      <point x="458" y="92" type="line"/>
      <point x="110" y="92" type="line"/>
      <point x="110" y="0" type="line"/>
      <point x="434" y="0" type="line"/>
      <point x="469" y="80" type="line"/>
      <point x="469" y="86" type="line"/>
      <point x="455" y="141"/>
      <point x="449" y="196"/>
      <point x="449" y="256" type="curve" smooth="yes"/>
      <point x="449" y="316"/>
      <point x="454" y="381"/>
      <point x="464" y="457" type="curve"/>
      <point x="464" y="463" type="line"/>
      <point x="118" y="463" type="line"/>
      <point x="102" y="446"/>
      <point x="76" y="369"/>
      <point x="78" y="303" type="curve" smooth="yes"/>
    </contour>
  </outline>
</glyph>
<glyph name="ra-yezi" format="2">
  <advance width="643"/>
  <unicode hex="10E8D"/>
  <guideline x="62" y="420" angle="247.8548"/>
  <outline>
    <contour>
      <point x="544" y="-5" type="curve" smooth="yes"/>
      <point x="569" y="-5"/>
      <point x="590" y="8"/>
      <point x="595" y="40" type="curve"/>
      <point x="553" y="56"/>
      <point x="530" y="114"/>
      <point x="530" y="204" type="curve" smooth="yes"/>
      <point x="530" y="296"/>
      <point x="546" y="377"/>
      <point x="576" y="457" type="curve"/>
      <point x="576" y="463" type="line"/>
      <point x="99" y="463" type="line"/>
      <point x="64" y="377" type="line"/>
      <point x="86" y="311"/>
      <point x="97" y="240"/>
      <point x="97" y="169" type="curve" smooth="yes"/>
      <point x="97" y="97"/>
      <point x="85" y="44"/>
      <point x="73" y="0" type="curve"/>
      <point x="108" y="0" type="line"/>
      <point x="130" y="72"/>
      <point x="146" y="173"/>
      <point x="146" y="271" type="curve" smooth="yes"/>
      <point x="146" y="332"/>
      <point x="139" y="379"/>
      <point x="127" y="428" type="curve"/>
      <point x="75" y="371" type="line"/>
      <point x="543" y="371" type="line"/>
      <point x="519" y="388" type="line"/>
      <point x="494" y="297"/>
      <point x="477" y="175"/>
      <point x="477" y="96" type="curve" smooth="yes"/>
      <point x="477" y="33"/>
      <point x="497" y="-5"/>
    </contour>
  </outline>
</glyph>
<glyph name="za-yezi" format="2">
  <advance width="372"/>
  <unicode hex="10E8F"/>
  <outline>
    <contour>
      <point x="269" y="-5" type="curve"/>
      <point x="332" y="67" type="line"/>
      <point x="332" y="73" type="line"/>
      <point x="262" y="135"/>
      <point x="188" y="196"/>
      <point x="108" y="258" type="curve"/>
      <point x="109" y="245" type="line"/>
      <point x="174" y="311"/>
      <point x="234" y="378"/>
      <point x="292" y="444" type="curve"/>
      <point x="271" y="463" type="line"/>
      <point x="196" y="378"/>
      <point x="113" y="294"/>
      <point x="22" y="209" type="curve"/>
      <point x="22" y="204" type="line"/>
      <point x="110" y="134"/>
      <point x="193" y="65"/>
    </contour>
  </outline>
</glyph>
<glyph name="ja-yezi" format="2">
  <advance width="666"/>
  <unicode hex="10E90"/>
  <outline>
    <contour>
      <point x="578" y="-5" type="curve"/>
      <point x="584" y="-5" type="line"/>
      <point x="640" y="69" type="line"/>
      <point x="535" y="192"/>
      <point x="434" y="322"/>
      <point x="344" y="463" type="curve"/>
      <point x="334" y="463" type="line"/>
      <point x="248" y="303"/>
      <point x="155" y="150"/>
      <point x="59" y="19" type="curve"/>
      <point x="84" y="0" type="line"/>
      <point x="167" y="116"/>
      <point x="244" y="235"/>
      <point x="315" y="368" type="curve"/>
      <point x="308" y="368" type="line"/>
      <point x="390" y="234"/>
      <point x="482" y="111"/>
    </contour>
    <contour>
      <point x="322" y="0" type="curve"/>
      <point x="332" y="0" type="line"/>
      <point x="417" y="160"/>
      <point x="511" y="313"/>
      <point x="607" y="444" type="curve"/>
      <point x="582" y="463" type="line"/>
      <point x="499" y="347"/>
      <point x="422" y="228"/>
      <point x="351" y="95" type="curve"/>
      <point x="358" y="95" type="line"/>
      <point x="276" y="229"/>
      <point x="184" y="352"/>
      <point x="88" y="468" type="curve"/>
      <point x="82" y="468" type="line"/>
      <point x="26" y="394" type="line"/>
      <point x="131" y="271"/>
      <point x="232" y="141"/>
    </contour>
  </outline>
</glyph>
<glyph name="sin-yezi" format="2">
  <advance width="755"/>
  <unicode hex="10E91"/>
  <outline>
    <contour>
      <point x="67" y="-5" type="line"/>
      <point x="656" y="-5" type="line"/>
      <point x="691" y="81" type="line"/>
      <point x="669" y="147"/>
      <point x="658" y="218"/>
      <point x="658" y="289" type="curve" smooth="yes"/>
      <point x="658" y="361"/>
      <point x="670" y="414"/>
      <point x="682" y="458" type="curve"/>
      <point x="647" y="458" type="line"/>
      <point x="625" y="386"/>
      <point x="609" y="285"/>
      <point x="609" y="187" type="curve" smooth="yes"/>
      <point x="609" y="126"/>
      <point x="616" y="79"/>
      <point x="628" y="30" type="curve"/>
      <point x="680" y="87" type="line"/>
      <point x="100" y="87" type="line"/>
      <point x="124" y="70" type="line"/>
      <point x="149" y="161"/>
      <point x="166" y="283"/>
      <point x="166" y="362" type="curve" smooth="yes"/>
      <point x="166" y="425"/>
      <point x="146" y="463"/>
      <point x="99" y="463" type="curve" smooth="yes"/>
      <point x="74" y="463"/>
      <point x="53" y="450"/>
      <point x="48" y="418" type="curve"/>
      <point x="90" y="402"/>
      <point x="113" y="344"/>
      <point x="113" y="254" type="curve" smooth="yes"/>
      <point x="113" y="162"/>
      <point x="97" y="81"/>
      <point x="67" y="1" type="curve"/>
    </contour>
    <contour>
      <point x="320" y="1" type="curve"/>
      <point x="377" y="70" type="line"/>
      <point x="402" y="161"/>
      <point x="419" y="283"/>
      <point x="419" y="362" type="curve" smooth="yes"/>
      <point x="419" y="425"/>
      <point x="399" y="463"/>
      <point x="352" y="463" type="curve" smooth="yes"/>
      <point x="327" y="463"/>
      <point x="306" y="450"/>
      <point x="301" y="418" type="curve"/>
      <point x="343" y="402"/>
      <point x="366" y="344"/>
      <point x="366" y="254" type="curve" smooth="yes"/>
      <point x="366" y="162"/>
      <point x="350" y="81"/>
    </contour>
  </outline>
</glyph>
<glyph name="shin-yezi" format="2">
  <advance width="755"/>
  <unicode hex="10E92"/>
  <outline>
    <contour>
      <point x="656" y="-5" type="curve" smooth="yes"/>
      <point x="681" y="-5"/>
      <point x="702" y="8"/>
      <point x="707" y="40" type="curve"/>
      <point x="665" y="56"/>
      <point x="642" y="114"/>
      <point x="642" y="204" type="curve" smooth="yes"/>
      <point x="642" y="296"/>
      <point x="658" y="377"/>
      <point x="688" y="457" type="curve"/>
      <point x="688" y="463" type="line"/>
      <point x="99" y="463" type="line"/>
      <point x="64" y="377" type="line"/>
      <point x="86" y="311"/>
      <point x="97" y="240"/>
      <point x="97" y="169" type="curve" smooth="yes"/>
      <point x="97" y="97"/>
      <point x="85" y="44"/>
      <point x="73" y="0" type="curve"/>
      <point x="108" y="0" type="line"/>
      <point x="130" y="72"/>
      <point x="146" y="173"/>
      <point x="146" y="271" type="curve" smooth="yes"/>
      <point x="146" y="332"/>
      <point x="139" y="379"/>
      <point x="127" y="428" type="curve"/>
      <point x="75" y="371" type="line"/>
      <point x="655" y="371" type="line"/>
      <point x="631" y="388" type="line"/>
      <point x="606" y="297"/>
      <point x="589" y="175"/>
      <point x="589" y="96" type="curve" smooth="yes"/>
      <point x="589" y="33"/>
      <point x="609" y="-5"/>
    </contour>
    <contour>
      <point x="403" y="-5" type="curve" smooth="yes"/>
      <point x="428" y="-5"/>
      <point x="449" y="8"/>
      <point x="454" y="40" type="curve"/>
      <point x="412" y="56"/>
      <point x="389" y="114"/>
      <point x="389" y="204" type="curve" smooth="yes"/>
      <point x="389" y="296"/>
      <point x="405" y="377"/>
      <point x="435" y="457" type="curve"/>
      <point x="378" y="388" type="line"/>
      <point x="353" y="297"/>
      <point x="336" y="175"/>
      <point x="336" y="96" type="curve" smooth="yes"/>
      <point x="336" y="33"/>
      <point x="356" y="-5"/>
    </contour>
  </outline>
</glyph>
<glyph name="sad-yezi" format="2">
  <advance width="539"/>
  <unicode hex="10E93"/>
  <outline>
    <contour>
      <point x="38" y="185" type="line"/>
      <point x="466" y="185" type="line"/>
      <point x="501" y="272" type="line"/>
      <point x="501" y="277" type="line"/>
      <point x="72" y="277" type="line"/>
      <point x="38" y="191" type="line"/>
    </contour>
    <contour>
      <point x="253" y="0" type="curve"/>
      <point x="294" y="0" type="line"/>
      <point x="298" y="77"/>
      <point x="301" y="154"/>
      <point x="301" y="231" type="curve" smooth="yes"/>
      <point x="301" y="309"/>
      <point x="298" y="386"/>
      <point x="290" y="463" type="curve"/>
      <point x="285" y="463" type="line"/>
      <point x="229" y="417" type="line"/>
      <point x="247" y="284"/>
      <point x="253" y="143"/>
    </contour>
  </outline>
</glyph>
<glyph name="dad-yezi" format="2">
  <advance width="483"/>
  <unicode hex="10E94"/>
  <outline>
    <contour>
      <point x="397" y="0" type="line"/>
      <point x="462" y="63" type="line"/>
      <point x="462" y="68" type="line"/>
      <point x="85" y="463" type="line"/>
      <point x="21" y="401" type="line"/>
      <point x="21" y="395" type="line"/>
    </contour>
    <contour>
      <point x="66" y="0" type="line"/>
      <point x="439" y="439" type="line"/>
      <point x="439" y="445" type="line"/>
      <point x="418" y="463" type="line"/>
      <point x="44" y="24" type="line"/>
      <point x="44" y="19" type="line"/>
    </contour>
  </outline>
</glyph>
<glyph name="ta-yezi" format="2">
  <advance width="398"/>
  <unicode hex="10E95"/>
  <outline>
    <contour>
      <point x="284" y="-293" type="line"/>
      <point x="289" y="-293" type="line"/>
      <point x="346" y="-258" type="line"/>
      <point x="316" y="298" type="line" smooth="yes"/>
      <point x="310" y="410"/>
      <point x="267" y="463"/>
      <point x="158" y="463" type="curve" smooth="yes"/>
      <point x="54" y="463" type="line"/>
      <point x="16" y="377" type="line"/>
      <point x="16" y="371" type="line"/>
      <point x="147" y="371" type="line" smooth="yes"/>
      <point x="229" y="371"/>
      <point x="267" y="341"/>
      <point x="269" y="264" type="curve" smooth="yes"/>
    </contour>
  </outline>
</glyph>
<glyph name="ze-yezi" format="2">
  <advance width="551"/>
  <unicode hex="10E96"/>
  <outline>
    <contour>
      <point x="34" y="185" type="line"/>
      <point x="482" y="185" type="line"/>
      <point x="517" y="272" type="line"/>
      <point x="517" y="277" type="line"/>
      <point x="68" y="277" type="line"/>
      <point x="34" y="191" type="line"/>
    </contour>
    <contour>
      <point x="174" y="0" type="curve"/>
      <point x="211" y="0" type="line"/>
      <point x="215" y="69"/>
      <point x="217" y="139"/>
      <point x="217" y="209" type="curve" smooth="yes"/>
      <point x="217" y="294"/>
      <point x="214" y="378"/>
      <point x="205" y="463" type="curve"/>
      <point x="200" y="463" type="line"/>
      <point x="150" y="423" type="line"/>
      <point x="168" y="288"/>
      <point x="174" y="145"/>
    </contour>
    <contour>
      <point x="338" y="0" type="curve"/>
      <point x="375" y="0" type="line"/>
      <point x="379" y="69"/>
      <point x="381" y="139"/>
      <point x="381" y="209" type="curve" smooth="yes"/>
      <point x="381" y="294"/>
      <point x="378" y="378"/>
      <point x="369" y="463" type="curve"/>
      <point x="364" y="463" type="line"/>
      <point x="314" y="423" type="line"/>
      <point x="332" y="288"/>
      <point x="338" y="145"/>
    </contour>
  </outline>
</glyph>
<glyph name="eyn-yezi" format="2">
  <advance width="517"/>
  <unicode hex="10E97"/>
  <outline>
    <contour>
      <point x="28" y="0" type="line"/>
      <point x="386" y="0" type="line"/>
      <point x="402" y="25"/>
      <point x="425" y="78"/>
      <point x="425" y="167" type="curve" smooth="yes"/>
      <point x="425" y="211"/>
      <point x="423" y="335"/>
      <point x="400" y="463" type="curve"/>
      <point x="395" y="463" type="line"/>
      <point x="335" y="416" type="line"/>
      <point x="369" y="304"/>
      <point x="381" y="172"/>
      <point x="381" y="50" type="curve"/>
      <point x="411" y="92" type="line"/>
      <point x="62" y="92" type="line"/>
      <point x="28" y="6" type="line"/>
    </contour>
  </outline>
</glyph>
<glyph name="xheyn-yezi" format="2">
  <advance width="549"/>
  <unicode hex="10E98"/>
  <outline>
    <contour>
      <point x="34" y="273" type="line"/>
      <point x="482" y="273" type="line"/>
      <point x="515" y="354" type="line"/>
      <point x="515" y="359" type="line"/>
      <point x="66" y="359" type="line"/>
      <point x="34" y="279" type="line"/>
    </contour>
    <contour>
      <point x="174" y="0" type="curve"/>
      <point x="211" y="0" type="line"/>
      <point x="215" y="69"/>
      <point x="217" y="139"/>
      <point x="217" y="209" type="curve" smooth="yes"/>
      <point x="217" y="294"/>
      <point x="214" y="378"/>
      <point x="205" y="463" type="curve"/>
      <point x="200" y="463" type="line"/>
      <point x="150" y="423" type="line"/>
      <point x="168" y="288"/>
      <point x="174" y="145"/>
    </contour>
    <contour>
      <point x="34" y="103" type="line"/>
      <point x="482" y="103" type="line"/>
      <point x="515" y="184" type="line"/>
      <point x="515" y="189" type="line"/>
      <point x="66" y="189" type="line"/>
      <point x="34" y="109" type="line"/>
    </contour>
    <contour>
      <point x="338" y="0" type="curve"/>
      <point x="375" y="0" type="line"/>
      <point x="379" y="69"/>
      <point x="381" y="139"/>
      <point x="381" y="209" type="curve" smooth="yes"/>
      <point x="381" y="294"/>
      <point x="378" y="378"/>
      <point x="369" y="463" type="curve"/>
      <point x="364" y="463" type="line"/>
      <point x="314" y="423" type="line"/>
      <point x="332" y="288"/>
      <point x="338" y="145"/>
    </contour>
  </outline>
</glyph>
<glyph name="fa-yezi" format="2">
  <advance width="463"/>
  <unicode hex="10E99"/>
  <outline>
    <contour>
      <point x="53" y="0" type="line"/>
      <point x="400" y="0" type="line"/>
      <point x="435" y="87" type="line"/>
      <point x="435" y="92" type="line"/>
      <point x="71" y="92" type="line"/>
      <point x="91" y="64" type="line"/>
      <point x="97" y="172"/>
      <point x="103" y="280"/>
      <point x="104" y="388" type="curve" smooth="yes"/>
      <point x="104" y="413"/>
      <point x="104" y="438"/>
      <point x="103" y="463" type="curve"/>
      <point x="98" y="463" type="line"/>
      <point x="38" y="416" type="line"/>
      <point x="51" y="282"/>
      <point x="53" y="140"/>
      <point x="53" y="6" type="curve" smooth="yes"/>
    </contour>
  </outline>
</glyph>
<glyph name="va-yezi" format="2">
  <advance width="372"/>
  <unicode hex="10E9A"/>
  <outline>
    <contour>
      <point x="101" y="-5" type="line"/>
      <point x="176" y="80"/>
      <point x="259" y="164"/>
      <point x="350" y="249" type="curve"/>
      <point x="350" y="254" type="line"/>
      <point x="262" y="324"/>
      <point x="179" y="393"/>
      <point x="103" y="463" type="curve"/>
      <point x="40" y="391" type="line"/>
      <point x="40" y="385" type="line"/>
      <point x="110" y="323"/>
      <point x="184" y="262"/>
      <point x="264" y="200" type="curve"/>
      <point x="263" y="213" type="line"/>
      <point x="198" y="147"/>
      <point x="139" y="80"/>
      <point x="80" y="14" type="curve"/>
    </contour>
    <contour>
      <point x="256" y="-6" type="curve" smooth="yes"/>
      <point x="280" y="-6"/>
      <point x="296" y="8"/>
      <point x="296" y="39" type="curve" smooth="yes"/>
      <point x="296" y="69"/>
      <point x="280" y="83"/>
      <point x="256" y="83" type="curve" smooth="yes"/>
      <point x="231" y="83"/>
      <point x="215" y="69"/>
      <point x="215" y="39" type="curve" smooth="yes"/>
      <point x="215" y="8"/>
      <point x="231" y="-6"/>
    </contour>
  </outline>
</glyph>
<glyph name="va-yezi.alt" format="2">
  <advance width="519"/>
  <unicode hex="10E9B"/>
  <guideline x="269" y="-195" angle="0"/>
  <outline>
    <contour>
      <point x="146" y="-195" type="line"/>
      <point x="459" y="444" type="line"/>
      <point x="457" y="450" type="line"/>
      <point x="428" y="463" type="line"/>
      <point x="115" y="-175" type="line"/>
      <point x="116" y="-180" type="line"/>
    </contour>
    <contour>
      <point x="71" y="-98" type="line"/>
      <point x="333" y="437" type="line"/>
      <point x="331" y="443" type="line"/>
      <point x="302" y="457" type="line"/>
      <point x="40" y="-79" type="line"/>
      <point x="41" y="-84" type="line"/>
    </contour>
  </outline>
</glyph>
<glyph name="qaf-yezi" format="2">
  <advance width="495"/>
  <unicode hex="10E9C"/>
  <outline>
    <contour>
      <point x="16" y="0" type="line"/>
      <point x="445" y="0" type="line"/>
      <point x="479" y="86" type="line"/>
      <point x="479" y="92" type="line"/>
      <point x="51" y="92" type="line"/>
      <point x="16" y="5" type="line"/>
    </contour>
    <contour>
      <point x="231" y="-293" type="curve"/>
      <point x="263" y="-293" type="line"/>
      <point x="269" y="-194"/>
      <point x="272" y="-135"/>
      <point x="272" y="-78" type="curve" smooth="yes"/>
      <point x="272" y="-29"/>
      <point x="270" y="23"/>
      <point x="266" y="72" type="curve"/>
      <point x="261" y="72" type="line"/>
      <point x="210" y="25" type="line"/>
      <point x="226" y="-63"/>
      <point x="231" y="-121"/>
      <point x="232" y="-216" type="curve" smooth="yes"/>
      <point x="232" y="-253"/>
      <point x="232" y="-280"/>
    </contour>
  </outline>
</glyph>
<glyph name="kaf-yezi" format="2">
  <advance width="485"/>
  <unicode hex="10E9D"/>
  <guideline x="96" y="26" angle="146.3921"/>
  <outline>
    <contour>
      <point x="372" y="-293" type="line"/>
      <point x="378" y="-293" type="line"/>
      <point x="435" y="-220" type="line"/>
      <point x="241" y="-74" type="line" smooth="yes"/>
      <point x="181" y="-29"/>
      <point x="163" y="-8"/>
      <point x="163" y="19" type="curve" smooth="yes"/>
      <point x="163" y="45"/>
      <point x="178" y="59"/>
      <point x="232" y="83" type="curve" smooth="yes"/>
      <point x="378" y="148" type="line"/>
      <point x="378" y="166" type="line"/>
      <point x="222" y="274" type="line" smooth="yes"/>
      <point x="179" y="304"/>
      <point x="172" y="312"/>
      <point x="172" y="329" type="curve" smooth="yes"/>
      <point x="172" y="351"/>
      <point x="186" y="361"/>
      <point x="243" y="381" type="curve" smooth="yes"/>
      <point x="408" y="439" type="line"/>
      <point x="399" y="469" type="line"/>
      <point x="393" y="469" type="line"/>
      <point x="189" y="399" type="line" smooth="yes"/>
      <point x="114" y="373"/>
      <point x="85" y="347"/>
      <point x="85" y="303" type="curve" smooth="yes"/>
      <point x="85" y="265"/>
      <point x="106" y="237"/>
      <point x="166" y="197" type="curve" smooth="yes"/>
      <point x="286" y="116" type="line"/>
      <point x="302" y="150" type="line"/>
      <point x="154" y="86" type="line" smooth="yes"/>
      <point x="92" y="59"/>
      <point x="69" y="35"/>
      <point x="69" y="-5" type="curve" smooth="yes"/>
      <point x="69" y="-47"/>
      <point x="95" y="-83"/>
      <point x="164" y="-135" type="curve" smooth="yes"/>
    </contour>
  </outline>
</glyph>
<glyph name="gaf-yezi" format="2">
  <advance width="549"/>
  <unicode hex="10E9F"/>
  <outline>
    <contour>
      <point x="468" y="0" type="line"/>
      <point x="528" y="67" type="line"/>
      <point x="528" y="72" type="line"/>
      <point x="80" y="463" type="line"/>
      <point x="21" y="397" type="line"/>
      <point x="21" y="391" type="line"/>
    </contour>
    <contour>
      <point x="76" y="84" type="line"/>
      <point x="389" y="439" type="line"/>
      <point x="389" y="445" type="line"/>
      <point x="368" y="463" type="line"/>
      <point x="54" y="108" type="line"/>
      <point x="54" y="103" type="line"/>
    </contour>
    <contour>
      <point x="180" y="0" type="line"/>
      <point x="495" y="356" type="line"/>
      <point x="495" y="362" type="line"/>
      <point x="474" y="380" type="line"/>
      <point x="158" y="24" type="line"/>
      <point x="158" y="19" type="line"/>
    </contour>
  </outline>
</glyph>
<glyph name="lam-yezi" format="2">
  <advance width="389"/>
  <unicode hex="10EA0"/>
  <guideline x="-40" y="43" angle="293.8387"/>
  <outline>
    <contour>
      <point x="16" y="0" type="line"/>
      <point x="159" y="0" type="line" smooth="yes"/>
      <point x="268" y="0"/>
      <point x="317" y="53"/>
      <point x="317" y="165" type="curve" smooth="yes"/>
      <point x="317" y="337"/>
      <point x="305" y="568"/>
      <point x="284" y="770" type="curve"/>
      <point x="279" y="770" type="line"/>
      <point x="220" y="727" type="line"/>
      <point x="249" y="553"/>
      <point x="267" y="343"/>
      <point x="267" y="199" type="curve" smooth="yes"/>
      <point x="267" y="122"/>
      <point x="230" y="92"/>
      <point x="148" y="92" type="curve" smooth="yes"/>
      <point x="55" y="92" type="line"/>
      <point x="16" y="5" type="line"/>
    </contour>
  </outline>
</glyph>
<glyph name="mim-yezi" format="2">
  <advance width="399"/>
  <unicode hex="10EA1"/>
  <outline>
    <contour>
      <point x="241" y="0" type="curve" smooth="yes"/>
      <point x="345" y="0" type="line"/>
      <point x="383" y="86" type="line"/>
      <point x="383" y="92" type="line"/>
      <point x="252" y="92" type="line" smooth="yes"/>
      <point x="170" y="92"/>
      <point x="132" y="122"/>
      <point x="130" y="199" type="curve" smooth="yes"/>
      <point x="114" y="770" type="line"/>
      <point x="109" y="770" type="line"/>
      <point x="52" y="735" type="line"/>
      <point x="83" y="165" type="line" smooth="yes"/>
      <point x="89" y="53"/>
      <point x="132" y="0"/>
    </contour>
  </outline>
</glyph>
<glyph name="nun-yezi" format="2">
  <advance width="643"/>
  <unicode hex="10EA2"/>
  <outline>
    <contour>
      <point x="67" y="0" type="line"/>
      <point x="544" y="0" type="line"/>
      <point x="579" y="86" type="line"/>
      <point x="557" y="152"/>
      <point x="546" y="223"/>
      <point x="546" y="294" type="curve" smooth="yes"/>
      <point x="546" y="366"/>
      <point x="558" y="419"/>
      <point x="570" y="463" type="curve"/>
      <point x="535" y="463" type="line"/>
      <point x="513" y="391"/>
      <point x="497" y="290"/>
      <point x="497" y="192" type="curve" smooth="yes"/>
      <point x="497" y="131"/>
      <point x="504" y="84"/>
      <point x="516" y="35" type="curve"/>
      <point x="568" y="92" type="line"/>
      <point x="100" y="92" type="line"/>
      <point x="124" y="75" type="line"/>
      <point x="149" y="166"/>
      <point x="166" y="288"/>
      <point x="166" y="367" type="curve" smooth="yes"/>
      <point x="166" y="430"/>
      <point x="146" y="468"/>
      <point x="99" y="468" type="curve" smooth="yes"/>
      <point x="74" y="468"/>
      <point x="53" y="455"/>
      <point x="48" y="423" type="curve"/>
      <point x="90" y="407"/>
      <point x="113" y="349"/>
      <point x="113" y="259" type="curve" smooth="yes"/>
      <point x="113" y="167"/>
      <point x="97" y="86"/>
      <point x="67" y="6" type="curve"/>
    </contour>
  </outline>
</glyph>
<glyph name="um-yezi" format="2">
  <advance width="372"/>
  <unicode hex="10EA3"/>
  <anchor x="196" y="495" name="top"/>
  <outline>
    <contour>
      <point x="101" y="-5" type="line"/>
      <point x="176" y="80"/>
      <point x="259" y="164"/>
      <point x="350" y="249" type="curve"/>
      <point x="350" y="254" type="line"/>
      <point x="262" y="324"/>
      <point x="179" y="393"/>
      <point x="103" y="463" type="curve"/>
      <point x="40" y="391" type="line"/>
      <point x="40" y="385" type="line"/>
      <point x="110" y="323"/>
      <point x="184" y="262"/>
      <point x="264" y="200" type="curve"/>
      <point x="263" y="213" type="line"/>
      <point x="198" y="147"/>
      <point x="138" y="80"/>
      <point x="80" y="14" type="curve"/>
    </contour>
  </outline>
</glyph>
<glyph name="waw-yezi" format="2">
  <advance width="382"/>
  <unicode hex="10EA4"/>
  <anchor x="196" y="495" name="top"/>
  <outline>
    <contour>
      <point x="101" y="-5" type="line"/>
      <point x="176" y="80"/>
      <point x="259" y="164"/>
      <point x="350" y="249" type="curve"/>
      <point x="350" y="254" type="line"/>
      <point x="262" y="324"/>
      <point x="179" y="393"/>
      <point x="103" y="463" type="curve"/>
      <point x="40" y="391" type="line"/>
      <point x="40" y="385" type="line"/>
      <point x="110" y="323"/>
      <point x="184" y="262"/>
      <point x="264" y="200" type="curve"/>
      <point x="263" y="213" type="line"/>
      <point x="198" y="147"/>
      <point x="138" y="80"/>
      <point x="80" y="14" type="curve"/>
    </contour>
    <contour>
      <point x="260" y="16" type="line"/>
      <point x="279" y="35"/>
      <point x="302" y="60"/>
      <point x="321" y="81" type="curve"/>
      <point x="294" y="76" type="line"/>
      <point x="312" y="55"/>
      <point x="330" y="35"/>
      <point x="350" y="16" type="curve"/>
      <point x="352" y="16" type="line"/>
      <point x="383" y="46" type="line"/>
      <point x="362" y="66"/>
      <point x="341" y="88"/>
      <point x="320" y="111" type="curve"/>
      <point x="319" y="111" type="line"/>
      <point x="295" y="85"/>
      <point x="268" y="56"/>
      <point x="245" y="31" type="curve"/>
    </contour>
  </outline>
</glyph>
<glyph name="ow-yezi" format="2">
  <advance width="387"/>
  <unicode hex="10EA5"/>
  <anchor x="196" y="495" name="top"/>
  <outline>
    <contour>
      <point x="101" y="-5" type="line"/>
      <point x="176" y="80"/>
      <point x="259" y="164"/>
      <point x="350" y="249" type="curve"/>
      <point x="350" y="254" type="line"/>
      <point x="262" y="324"/>
      <point x="179" y="393"/>
      <point x="103" y="463" type="curve"/>
      <point x="40" y="391" type="line"/>
      <point x="40" y="385" type="line"/>
      <point x="110" y="323"/>
      <point x="184" y="262"/>
      <point x="264" y="200" type="curve"/>
      <point x="263" y="213" type="line"/>
      <point x="198" y="147"/>
      <point x="138" y="80"/>
      <point x="80" y="14" type="curve"/>
    </contour>
    <contour>
      <point x="313" y="386" type="curve"/>
      <point x="314" y="386" type="line"/>
      <point x="338" y="412"/>
      <point x="365" y="441"/>
      <point x="388" y="466" type="curve"/>
      <point x="373" y="481" type="line"/>
      <point x="354" y="462"/>
      <point x="331" y="437"/>
      <point x="312" y="416" type="curve"/>
      <point x="339" y="421" type="line"/>
      <point x="321" y="442"/>
      <point x="303" y="462"/>
      <point x="283" y="481" type="curve"/>
      <point x="281" y="481" type="line"/>
      <point x="250" y="451" type="line"/>
      <point x="271" y="431"/>
      <point x="292" y="409"/>
    </contour>
  </outline>
</glyph>
<glyph name="ew-yezi" format="2">
  <advance width="497"/>
  <unicode hex="10EA6"/>
  <anchor x="263" y="495" name="top"/>
  <outline>
    <contour>
      <point x="233" y="-11" type="curve" smooth="yes"/>
      <point x="365" y="-11"/>
      <point x="447" y="96"/>
      <point x="447" y="225" type="curve" smooth="yes"/>
      <point x="447" y="329"/>
      <point x="399" y="421"/>
      <point x="235" y="476" type="curve"/>
      <point x="204" y="445" type="line" smooth="yes"/>
      <point x="105" y="346"/>
      <point x="58" y="255"/>
      <point x="58" y="148" type="curve" smooth="yes"/>
      <point x="58" y="51"/>
      <point x="122" y="-11"/>
    </contour>
    <contour>
      <point x="276" y="73" type="curve" smooth="yes"/>
      <point x="179" y="73"/>
      <point x="119" y="120"/>
      <point x="119" y="212" type="curve" smooth="yes"/>
      <point x="119" y="284"/>
      <point x="155" y="356"/>
      <point x="216" y="409" type="curve"/>
      <point x="173" y="393" type="line"/>
      <point x="266" y="381"/>
      <point x="419" y="277"/>
      <point x="417" y="102" type="curve"/>
      <point x="429" y="180" type="line"/>
      <point x="400" y="115"/>
      <point x="349" y="73"/>
    </contour>
  </outline>
</glyph>
<glyph name="hay-yezi" format="2">
  <advance width="497"/>
  <unicode hex="10EA7"/>
  <outline>
    <contour>
      <point x="233" y="-11" type="curve" smooth="yes"/>
      <point x="365" y="-11"/>
      <point x="447" y="96"/>
      <point x="447" y="225" type="curve" smooth="yes"/>
      <point x="447" y="322"/>
      <point x="377" y="435"/>
      <point x="131" y="503" type="curve"/>
      <point x="92" y="409" type="line"/>
      <point x="247" y="367"/>
      <point x="417" y="297"/>
      <point x="417" y="102" type="curve"/>
      <point x="429" y="180" type="line"/>
      <point x="400" y="115"/>
      <point x="349" y="73"/>
      <point x="266" y="73" type="curve" smooth="yes"/>
      <point x="179" y="73"/>
      <point x="119" y="120"/>
      <point x="119" y="192" type="curve" smooth="yes"/>
      <point x="119" y="285"/>
      <point x="203" y="351"/>
      <point x="393" y="483" type="curve"/>
      <point x="376" y="507" type="line"/>
      <point x="139" y="353"/>
      <point x="58" y="275"/>
      <point x="58" y="148" type="curve" smooth="yes"/>
      <point x="58" y="51"/>
      <point x="122" y="-11"/>
    </contour>
  </outline>
</glyph>
<glyph name="et-yezi" format="2">
  <advance width="518"/>
  <unicode hex="10EA9"/>
  <anchor x="256" y="595" name="top"/>
  <outline>
    <contour>
      <point x="411" y="-293" type="curve"/>
      <point x="416" y="-293" type="line"/>
      <point x="474" y="-259" type="line"/>
      <point x="458" y="-153"/>
      <point x="455" y="-55"/>
      <point x="455" y="27" type="curve" smooth="yes"/>
      <point x="455" y="298" type="line" smooth="yes"/>
      <point x="455" y="380"/>
      <point x="427" y="463"/>
      <point x="267" y="463" type="curve" smooth="yes"/>
      <point x="97" y="463" type="line"/>
      <point x="62" y="383" type="line"/>
      <point x="62" y="377" type="line"/>
      <point x="76" y="322"/>
      <point x="82" y="267"/>
      <point x="82" y="207" type="curve" smooth="yes"/>
      <point x="82" y="147"/>
      <point x="77" y="82"/>
      <point x="67" y="6" type="curve"/>
      <point x="67" y="0" type="line"/>
      <point x="437" y="0" type="line"/>
      <point x="437" y="92" type="line"/>
      <point x="97" y="92" type="line"/>
      <point x="104" y="75" type="line"/>
      <point x="116" y="155"/>
      <point x="128" y="246"/>
      <point x="128" y="335" type="curve" smooth="yes"/>
      <point x="128" y="366"/>
      <point x="126" y="398"/>
      <point x="123" y="428" type="curve"/>
      <point x="73" y="371" type="line"/>
      <point x="296" y="371" type="line" smooth="yes"/>
      <point x="371" y="371"/>
      <point x="403" y="341"/>
      <point x="403" y="264" type="curve" smooth="yes"/>
      <point x="403" y="-105" type="line" smooth="yes"/>
      <point x="403" y="-168"/>
      <point x="405" y="-230"/>
    </contour>
    <contour>
      <point x="97" y="533" type="line"/>
      <point x="454" y="533" type="line"/>
      <point x="454" y="563" type="line"/>
      <point x="97" y="563" type="line"/>
    </contour>
  </outline>
</glyph>
<glyph name="hamza-yezi" format="2">
  <unicode hex="10EAB"/>
  <anchor x="0" y="516" name="_top"/>
  <outline>
    <contour>
      <point x="-15" y="559" type="line"/>
      <point x="84" y="622"/>
      <point x="99" y="650"/>
      <point x="99" y="673" type="curve" smooth="yes"/>
      <point x="99" y="698"/>
      <point x="84" y="709"/>
      <point x="42" y="716" type="curve" smooth="yes"/>
      <point x="-51" y="732" type="line"/>
      <point x="-44" y="712" type="line"/>
      <point x="-44" y="745"/>
      <point x="7" y="761"/>
      <point x="77" y="769" type="curve"/>
      <point x="104" y="827" type="line"/>
      <point x="15" y="822"/>
      <point x="-89" y="769"/>
      <point x="-89" y="705" type="curve" smooth="yes"/>
      <point x="-89" y="682"/>
      <point x="-75" y="668"/>
      <point x="-43" y="662" type="curve" smooth="yes"/>
      <point x="3" y="654" type="line" smooth="yes"/>
      <point x="31" y="649"/>
      <point x="34" y="643"/>
      <point x="34" y="636" type="curve" smooth="yes"/>
      <point x="34" y="627"/>
      <point x="27" y="619"/>
      <point x="-28" y="579" type="curve"/>
    </contour>
  </outline>
</glyph>
<glyph name="madda-yezi" format="2">
  <unicode hex="10EAC"/>
  <anchor x="0" y="516" name="_top.madda"/>
  <outline>
    <contour>
      <point x="-214" y="582" type="line"/>
      <point x="-132" y="653" type="line"/>
      <point x="-164" y="650" type="line"/>
      <point x="-101" y="632"/>
      <point x="-39" y="622"/>
      <point x="69" y="622" type="curve" smooth="yes"/>
      <point x="111" y="622"/>
      <point x="154" y="625"/>
      <point x="204" y="632" type="curve"/>
      <point x="244" y="700" type="line"/>
      <point x="240" y="704" type="line"/>
      <point x="214" y="698"/>
      <point x="172" y="693"/>
      <point x="115" y="693" type="curve" smooth="yes"/>
      <point x="20" y="693"/>
      <point x="-56" y="704"/>
      <point x="-99" y="720" type="curve"/>
      <point x="-105" y="720" type="line"/>
      <point x="-235" y="605" type="line"/>
    </contour>
  </outline>
</glyph>
<glyph name="hyphen-yezi" format="2">
  <advance width="264"/>
  <unicode hex="10EAD"/>
  <outline>
    <contour>
      <point x="120" y="485" type="curve" smooth="yes"/>
      <point x="152" y="485"/>
      <point x="176" y="504"/>
      <point x="176" y="535" type="curve" smooth="yes"/>
      <point x="176" y="586"/>
      <point x="113" y="580"/>
      <point x="113" y="614" type="curve" smooth="yes"/>
      <point x="113" y="647"/>
      <point x="140" y="672"/>
      <point x="194" y="690" type="curve"/>
      <point x="194" y="726" type="line"/>
      <point x="93" y="695"/>
      <point x="55" y="631"/>
      <point x="55" y="559" type="curve" smooth="yes"/>
      <point x="55" y="511"/>
      <point x="86" y="485"/>
    </contour>
  </outline>
</glyph>
<glyph name="lamDot-yezi" format="2">
  <advance width="389"/>
  <unicode hex="10EB0"/>
  <outline>
    <contour>
      <point x="16" y="0" type="line"/>
      <point x="159" y="0" type="line" smooth="yes"/>
      <point x="268" y="0"/>
      <point x="317" y="53"/>
      <point x="317" y="165" type="curve" smooth="yes"/>
      <point x="317" y="337"/>
      <point x="305" y="568"/>
      <point x="284" y="770" type="curve"/>
      <point x="279" y="770" type="line"/>
      <point x="220" y="727" type="line"/>
      <point x="249" y="553"/>
      <point x="267" y="343"/>
      <point x="267" y="199" type="curve" smooth="yes"/>
      <point x="267" y="122"/>
      <point x="230" y="92"/>
      <point x="148" y="92" type="curve" smooth="yes"/>
      <point x="55" y="92" type="line"/>
      <point x="16" y="5" type="line"/>
    </contour>
    <contour>
      <point x="246" y="824" type="curve" smooth="yes"/>
      <point x="270" y="824"/>
      <point x="286" y="838"/>
      <point x="286" y="869" type="curve" smooth="yes"/>
      <point x="286" y="899"/>
      <point x="270" y="913"/>
      <point x="246" y="913" type="curve" smooth="yes"/>
      <point x="221" y="913"/>
      <point x="205" y="899"/>
      <point x="205" y="869" type="curve" smooth="yes"/>
      <point x="205" y="838"/>
      <point x="221" y="824"/>
    </contour>
  </outline>
</glyph>
<glyph name="yotCircum-yezi" format="2">
  <advance width="518"/>
  <unicode hex="10EB1"/>
  <anchor x="266" y="795" name="top"/>
  <outline>
    <contour>
      <point x="411" y="-293" type="curve"/>
      <point x="416" y="-293" type="line"/>
      <point x="474" y="-259" type="line"/>
      <point x="458" y="-153"/>
      <point x="455" y="-55"/>
      <point x="455" y="27" type="curve" smooth="yes"/>
      <point x="455" y="298" type="line" smooth="yes"/>
      <point x="455" y="380"/>
      <point x="427" y="463"/>
      <point x="267" y="463" type="curve" smooth="yes"/>
      <point x="97" y="463" type="line"/>
      <point x="62" y="383" type="line"/>
      <point x="62" y="377" type="line"/>
      <point x="76" y="322"/>
      <point x="82" y="267"/>
      <point x="82" y="207" type="curve" smooth="yes"/>
      <point x="82" y="147"/>
      <point x="77" y="82"/>
      <point x="67" y="6" type="curve"/>
      <point x="67" y="0" type="line"/>
      <point x="437" y="0" type="line"/>
      <point x="437" y="92" type="line"/>
      <point x="97" y="92" type="line"/>
      <point x="104" y="75" type="line"/>
      <point x="116" y="155"/>
      <point x="128" y="246"/>
      <point x="128" y="335" type="curve" smooth="yes"/>
      <point x="128" y="366"/>
      <point x="126" y="398"/>
      <point x="123" y="428" type="curve"/>
      <point x="73" y="371" type="line"/>
      <point x="296" y="371" type="line" smooth="yes"/>
      <point x="371" y="371"/>
      <point x="403" y="341"/>
      <point x="403" y="264" type="curve" smooth="yes"/>
      <point x="403" y="-105" type="line" smooth="yes"/>
      <point x="403" y="-168"/>
      <point x="405" y="-230"/>
    </contour>
    <contour>
      <point x="125" y="541" type="line"/>
      <point x="174" y="591"/>
      <point x="219" y="639"/>
      <point x="265" y="692" type="curve"/>
      <point x="255" y="688" type="line"/>
      <point x="287" y="642"/>
      <point x="330" y="588"/>
      <point x="372" y="541" type="curve"/>
      <point x="377" y="541" type="line"/>
      <point x="436" y="598" type="line"/>
      <point x="389" y="648"/>
      <point x="336" y="707"/>
      <point x="295" y="764" type="curve"/>
      <point x="291" y="764" type="line"/>
      <point x="233" y="692"/>
      <point x="166" y="620"/>
      <point x="107" y="558" type="curve"/>
    </contour>
  </outline>
</glyph>
